<svg width="130" height="33" viewBox="0 0 130 33" fill="none" xmlns="http://www.w3.org/2000/svg">
<path fill-rule="evenodd" clip-rule="evenodd" d="M5.12059 14.8569C5.12046 14.8568 5.12034 14.8568 5.12021 14.8567C4.69906 14.6331 4.48849 14.2754 4.48849 13.7835C4.48849 13.1799 4.7434 12.7439 5.2532 12.4756C5.76301 12.2073 6.28389 12.0732 6.81586 12.0732C8.12362 12.0732 9.16539 12.6209 9.94118 13.7165L12.601 11.3018C11.9582 10.4075 11.116 9.77592 10.0742 9.40701C9.03239 9.03811 7.97955 8.85366 6.9156 8.85366C6.11765 8.85366 5.33079 8.95427 4.55499 9.15549C3.7792 9.35671 3.09208 9.66971 2.49361 10.0945C1.89514 10.5193 1.41305 11.0615 1.04732 11.721C0.681587 12.3806 0.498718 13.1575 0.498718 14.0518C0.498718 14.4906 0.537048 14.8887 0.613708 15.2461C2.08206 15.0277 3.58706 14.8957 5.12059 14.8569ZM12.3296 17.9211C12.377 17.9825 12.4231 18.0454 12.468 18.1098C12.8892 18.7134 13.0997 19.5406 13.0997 20.5915C13.0997 21.5528 12.8947 22.3633 12.4846 23.0229C12.0746 23.6824 11.5426 24.2134 10.8887 24.6159C10.2349 25.0183 9.49787 25.3089 8.67775 25.4878C7.85763 25.6667 7.03752 25.7561 6.21739 25.7561C4.97612 25.7561 3.83461 25.5772 2.79283 25.2195C1.75105 24.8618 0.820123 24.2134 0 23.2744L2.65985 20.7591C3.16966 21.3405 3.71825 21.8155 4.30563 22.1844C4.89302 22.5534 5.60785 22.7378 6.45013 22.7378C6.73829 22.7378 7.03751 22.7043 7.34782 22.6372C7.65814 22.5701 7.94629 22.4583 8.21228 22.3018C8.47827 22.1453 8.69437 21.9497 8.86061 21.7149C9.02685 21.4802 9.10997 21.2063 9.10997 20.8933C9.10997 20.3343 8.8994 19.9207 8.47826 19.6524C8.05711 19.3841 7.52515 19.1662 6.88235 18.9985C6.23955 18.8308 5.5469 18.6743 4.80435 18.529C4.31728 18.4336 3.85167 18.2998 3.40752 18.1275C5.13392 17.8778 6.91043 17.7476 8.72395 17.7476C9.94391 17.7476 11.1471 17.8065 12.3296 17.9211ZM27.5399 22.1165C23.9624 19.1964 19.5078 17.0013 14.5294 15.8217V0H18.5192V15.9299L24.6701 9.2561H29.7903L22.9412 16.5671L27.5399 22.1165ZM29.4829 24.4612L30.2225 25.3537H24.9361L20.577 19.7136C23.8848 20.8631 26.8942 22.479 29.4829 24.4612ZM18.5192 19.0701V25.3537H14.5294V18.2017C15.894 18.4181 17.2261 18.7094 18.5192 19.0701ZM30.7877 9.2561H34.7775V25.3537H30.7877V9.2561ZM30.2225 3.78963C30.2225 3.14126 30.4608 2.57673 30.9373 2.09604C31.4139 1.61534 32.0179 1.375 32.7494 1.375C33.4808 1.375 34.0959 1.60416 34.5946 2.0625C35.0934 2.52084 35.3427 3.09654 35.3427 3.78963C35.3427 4.48273 35.0934 5.05843 34.5946 5.51677C34.0959 5.9751 33.4808 6.20427 32.7494 6.20427C32.0179 6.20427 31.4139 5.96392 30.9373 5.48323C30.4608 5.00254 30.2225 4.43801 30.2225 3.78963ZM37.7698 0H41.7596V25.3537H37.7698V0ZM44.7852 0H48.7749V25.3537H44.7852V0ZM60.2123 13.7165C59.4365 12.6209 58.3947 12.0732 57.087 12.0732C56.555 12.0732 56.0341 12.2073 55.5243 12.4756C55.0145 12.7439 54.7596 13.1799 54.7596 13.7835C54.7596 14.2754 54.9702 14.6331 55.3913 14.8567C55.8124 15.0803 56.3444 15.2703 56.9872 15.4268C57.63 15.5833 58.3227 15.7454 59.0652 15.9131C59.8078 16.0808 60.5004 16.3379 61.1432 16.6844C61.786 17.031 62.318 17.5061 62.7391 18.1098C63.1603 18.7134 63.3708 19.5406 63.3708 20.5915C63.3708 21.5528 63.1658 22.3633 62.7558 23.0229C62.3457 23.6824 61.8137 24.2134 61.1599 24.6159C60.506 25.0183 59.769 25.3089 58.9489 25.4878C58.1287 25.6667 57.3086 25.7561 56.4885 25.7561C55.2472 25.7561 54.1057 25.5772 53.0639 25.2195C52.0222 24.8618 51.0912 24.2134 50.2711 23.2744L52.9309 20.7591C53.4407 21.3405 53.9893 21.8155 54.5767 22.1844C55.1641 22.5534 55.8789 22.7378 56.7212 22.7378C57.0094 22.7378 57.3086 22.7043 57.6189 22.6372C57.9292 22.5701 58.2174 22.4583 58.4834 22.3018C58.7494 22.1453 58.9655 21.9497 59.1317 21.7149C59.298 21.4802 59.3811 21.2063 59.3811 20.8933C59.3811 20.3343 59.1705 19.9207 58.7494 19.6524C58.3282 19.3841 57.7963 19.1662 57.1535 18.9985C56.5107 18.8308 55.818 18.6743 55.0755 18.529C54.3329 18.3836 53.6402 18.1489 52.9974 17.8247C52.3546 17.5005 51.8227 17.0478 51.4015 16.4665C50.9804 15.8852 50.7698 15.0803 50.7698 14.0518C50.7698 13.1575 50.9527 12.3806 51.3184 11.721C51.6842 11.0615 52.1662 10.5193 52.7647 10.0945C53.3632 9.66971 54.0503 9.35671 54.8261 9.15549C55.6019 8.95427 56.3887 8.85366 57.1867 8.85366C58.2507 8.85366 59.3035 9.03811 60.3453 9.40701C61.3871 9.77592 62.2293 10.4075 62.8721 11.3018L60.2123 13.7165ZM81.5991 14.3186C75.0884 15.0866 69.2526 17.6208 64.8005 21.3257V9.2561H68.5908V11.6707H68.6573C69.2336 10.687 70.0094 9.97155 70.9846 9.52439C71.9599 9.07723 73.0128 8.85366 74.1432 8.85366C75.3623 8.85366 76.4595 9.07164 77.4348 9.50762C78.4101 9.9436 79.2413 10.5417 79.9284 11.3018C80.6155 12.062 81.1364 12.9563 81.491 13.9848C81.5291 14.0951 81.5651 14.2064 81.5991 14.3186ZM82.0204 17.5468C81.9964 18.6408 81.8089 19.6668 81.4578 20.625C81.081 21.6535 80.5546 22.5478 79.8785 23.3079C79.2025 24.0681 78.3879 24.6662 77.4348 25.1021C76.4817 25.5381 75.4399 25.7561 74.3095 25.7561C73.5558 25.7561 72.8909 25.6778 72.3146 25.5213C71.7383 25.3648 71.2285 25.1636 70.7852 24.9177C70.3419 24.6718 69.965 24.409 69.6547 24.1296C69.3444 23.8501 69.0895 23.5762 68.89 23.3079H68.7903V33H64.8005V26.6871C69.0135 22.1229 75.0641 18.8153 82.0204 17.5468ZM78.0332 17.3049C78.0332 16.6789 77.928 16.0752 77.7174 15.4939C77.5068 14.9126 77.1965 14.3984 76.7864 13.9512C76.3764 13.5041 75.8832 13.1463 75.3069 12.8781C74.7306 12.6098 74.0767 12.4756 73.3453 12.4756C72.6138 12.4756 71.9599 12.6098 71.3836 12.8781C70.8073 13.1463 70.3142 13.5041 69.9041 13.9512C69.494 14.3984 69.1837 14.9126 68.9731 15.4939C68.7626 16.0752 68.6573 16.6789 68.6573 17.3049C68.6573 17.9309 68.7626 18.5345 68.9731 19.1159C69.1837 19.6972 69.494 20.2114 69.9041 20.6585C70.3142 21.1057 70.8073 21.4634 71.3836 21.7317C71.9599 22 72.6138 22.1341 73.3453 22.1341C74.0767 22.1341 74.7306 22 75.3069 21.7317C75.8832 21.4634 76.3764 21.1057 76.7864 20.6585C77.1965 20.2114 77.5068 19.6972 77.7174 19.1159C77.928 18.5345 78.0332 17.9309 78.0332 17.3049ZM84.7216 17.1628C84.2059 17.5749 83.794 18.0862 83.4859 18.6966C83.1756 19.3115 83.0205 20.0549 83.0205 20.9268C83.0205 21.7317 83.1867 22.436 83.5192 23.0396C83.8517 23.6433 84.2894 24.1463 84.8325 24.5488C85.3755 24.9512 85.9962 25.253 86.6944 25.4543C87.3926 25.6555 88.1074 25.7561 88.8389 25.7561C89.9028 25.7561 90.8781 25.5493 91.7647 25.1357C92.6513 24.7221 93.3828 24.0569 93.9591 23.1402H94.0588V25.3537H97.6496V18.2118C94.7307 17.4102 91.6134 16.9767 88.3756 16.9767C87.1385 16.9767 85.9191 17.0399 84.7216 17.1628ZM94.0588 15.0512V14.8902C94.0588 13.8841 93.7153 13.1296 93.0281 12.6265C92.341 12.1235 91.4655 11.8719 90.4015 11.8719C89.5592 11.8719 88.7724 12.0229 88.0409 12.3247C87.3095 12.6265 86.6778 13.0346 86.1458 13.5488L84.0511 11.436C84.9378 10.5193 85.974 9.85975 87.1599 9.45731C88.3457 9.05487 89.5703 8.85366 90.8338 8.85366C91.9642 8.85366 92.9173 8.98221 93.6931 9.23933C94.4689 9.49644 95.1117 9.82622 95.6215 10.2287C96.1313 10.6311 96.5247 11.095 96.8018 11.6204C97.0789 12.1458 97.2783 12.6768 97.4003 13.2134C97.5222 13.75 97.5942 14.2698 97.6164 14.7729C97.6385 15.2759 97.6496 15.7175 97.6496 16.0976V16.1359C96.4892 15.7125 95.2904 15.3494 94.0588 15.0512ZM93.8261 18.1433H92.9949C92.4408 18.1433 91.8201 18.1656 91.133 18.2104C90.4459 18.2551 89.7975 18.3613 89.188 18.529C88.5784 18.6966 88.0631 18.9426 87.6419 19.2668C87.2208 19.591 87.0102 20.0437 87.0102 20.625C87.0102 21.0051 87.0934 21.3237 87.2596 21.5808C87.4258 21.8379 87.6419 22.0559 87.9079 22.2348C88.1739 22.4136 88.4732 22.5422 88.8056 22.6204C89.1381 22.6987 89.4706 22.7378 89.8031 22.7378C91.1773 22.7378 92.1914 22.408 92.8453 21.7485C93.4992 21.0889 93.8261 20.189 93.8261 19.0488V18.1433ZM77.3267 19.9375C77.1716 20.1946 76.9915 20.435 76.7864 20.6585C76.3764 21.1057 75.8832 21.4634 75.3069 21.7317C74.7306 22 74.0767 22.1341 73.3453 22.1341C72.9795 22.1341 72.6332 22.1006 72.3063 22.0335C71.9793 21.9665 71.6718 21.8659 71.3836 21.7317C71.3379 21.7104 71.2927 21.6886 71.248 21.6662C70.7296 21.4061 70.2816 21.0702 69.9041 20.6585C69.494 20.2114 69.1837 19.6972 68.9731 19.1159C68.7626 18.5345 68.6573 17.9309 68.6573 17.3049C68.6573 16.6789 68.7626 16.0752 68.9731 15.4939C69.1837 14.9126 69.494 14.3984 69.9041 13.9512C70.3142 13.5041 70.8073 13.1463 71.3836 12.8781C71.9599 12.6098 72.6138 12.4756 73.3453 12.4756C74.0767 12.4756 74.7306 12.6098 75.3069 12.8781C75.8832 13.1463 76.3764 13.5041 76.7864 13.9512C77.1965 14.3984 77.5068 14.9126 77.7174 15.4939C77.928 16.0752 78.0332 16.6789 78.0332 17.3049C78.0332 17.7378 77.9829 18.1601 77.8822 18.5717C75.4611 19.3364 73.1898 20.3581 71.1155 21.5972C71.1592 21.6208 71.2033 21.6437 71.248 21.6662C71.2927 21.6886 71.3379 21.7104 71.3836 21.7317C71.9599 22 72.6138 22.1341 73.3453 22.1341C74.0767 22.1341 74.7306 22 75.3069 21.7317C75.8832 21.4634 76.3764 21.1057 76.7864 20.6585C77.1965 20.2114 77.5068 19.6972 77.7174 19.1159C77.7823 18.9366 77.8373 18.7552 77.8822 18.5717C77.8373 18.7552 77.7823 18.9366 77.7174 19.1159C77.6121 19.4065 77.4819 19.6804 77.3267 19.9375ZM103.801 19.1624C102.449 18.2996 101.006 17.5316 99.4873 16.8701C99.5335 15.7661 99.7577 14.754 100.16 13.8338C100.614 12.7942 101.229 11.9055 102.005 11.1677C102.781 10.4299 103.701 9.85975 104.765 9.45731C105.829 9.05487 106.959 8.85366 108.156 8.85366C109.176 8.85366 110.201 9.04929 111.231 9.44055C112.262 9.83181 113.165 10.4522 113.941 11.3018L111.182 14.0854C110.716 13.5935 110.228 13.2022 109.719 12.9116C109.209 12.6209 108.688 12.4756 108.156 12.4756C107.425 12.4756 106.771 12.6098 106.194 12.8781C105.618 13.1463 105.125 13.5041 104.715 13.9512C104.305 14.3984 103.994 14.9126 103.784 15.4939C103.573 16.0752 103.468 16.6789 103.468 17.3049C103.468 17.9309 103.573 18.5345 103.784 19.1159C103.79 19.1314 103.795 19.1469 103.801 19.1624ZM107.673 22.1136C107.83 22.1273 107.991 22.1341 108.156 22.1341C108.777 22.1341 109.353 22.0056 109.885 21.7485C110.417 21.4914 110.871 21.1169 111.248 20.625L113.908 23.5091C113.509 23.9116 113.049 24.2581 112.528 24.5488C112.007 24.8394 111.481 25.0742 110.949 25.2531C110.86 25.283 110.771 25.3115 110.683 25.3387C109.785 24.1946 108.777 23.1161 107.673 22.1136ZM110.631 25.3548C110.213 25.4815 109.809 25.5762 109.419 25.6387C108.932 25.717 108.511 25.7561 108.156 25.7561C106.959 25.7561 105.829 25.5549 104.765 25.1524C103.701 24.75 102.781 24.1799 102.005 23.4421C101.229 22.7043 100.614 21.8156 100.16 20.7759C99.8913 20.1614 99.702 19.5058 99.5922 18.8092C103.851 20.2627 107.619 22.5191 110.631 25.3548ZM68.7988 18.5319C71.4315 16.9964 74.3729 15.8082 77.529 15.046C77.3354 14.6449 77.0879 14.2799 76.7864 13.9512C76.3764 13.5041 75.8832 13.1463 75.3069 12.8781C74.7306 12.6098 74.0767 12.4756 73.3453 12.4756C72.6138 12.4756 71.9599 12.6098 71.3836 12.8781C70.8073 13.1463 70.3142 13.5041 69.9041 13.9512C69.494 14.3984 69.1837 14.9126 68.9731 15.4939C68.7626 16.0752 68.6573 16.6789 68.6573 17.3049C68.6573 17.7239 68.7045 18.1329 68.7988 18.5319ZM117.831 18.7134C117.964 19.9207 118.43 20.8598 119.228 21.5305C120.026 22.2012 120.99 22.5366 122.12 22.5366C123.118 22.5366 123.954 22.3298 124.63 21.9162C125.306 21.5025 125.899 20.9827 126.409 20.3567L129.269 22.5366C128.338 23.6992 127.296 24.5264 126.143 25.0183C124.991 25.5102 123.783 25.7561 122.519 25.7561C121.322 25.7561 120.192 25.5549 119.128 25.1524C118.064 24.75 117.144 24.1799 116.368 23.4421C115.592 22.7043 114.977 21.8156 114.523 20.7759C114.069 19.7363 113.841 18.5793 113.841 17.3049C113.841 16.0305 114.069 14.8735 114.523 13.8338C114.977 12.7942 115.592 11.9055 116.368 11.1677C117.144 10.4299 118.064 9.85975 119.128 9.45731C120.192 9.05487 121.322 8.85366 122.519 8.85366C123.627 8.85366 124.642 9.04929 125.561 9.44055C126.481 9.83181 127.268 10.3963 127.922 11.1341C128.576 11.872 129.086 12.783 129.451 13.8674C129.817 14.9517 130 16.1982 130 17.6067V18.7134H117.831ZM126.01 15.6951C125.988 14.5102 125.622 13.5767 124.913 12.8948C124.204 12.2129 123.217 11.8719 121.954 11.8719C120.757 11.8719 119.809 12.2185 119.111 12.9116C118.413 13.6047 117.986 14.5325 117.831 15.6951H126.01Z" fill="#4D5766"/>
</svg>
