<svg width="500" height="525" viewBox="0 0 500 525" fill="none" xmlns="http://www.w3.org/2000/svg">
<path fill-rule="evenodd" clip-rule="evenodd" d="M237.406 65.9858C230.281 65.9858 224.062 70.1858 220.938 76.3874C220.906 76.453 220.812 76.5843 220.812 76.5843C220.812 76.5843 220.781 76.6827 220.688 76.8468C212.062 93.3187 192.75 99.9468 176.531 91.9733C160.312 83.9999 152.75 64.1811 159.281 46.6921C162.062 39.2108 163.594 35.1093 163.594 35.1093C163.594 35.1093 163.625 35.0765 163.625 35.0437C174.156 14.4046 194.906 0.36084 218.75 0.36084H437.5C472 0.36084 500 29.7608 500 65.9858V377.344C500 435.356 450.031 461.606 450.031 461.606L366.156 520.373L366.125 520.406C354.844 526.805 341.156 526.509 330.156 519.586C319.125 512.662 312.406 500.161 312.438 486.708C312.469 483.525 312.469 481.622 312.469 481.622V459.736H218.531C194.688 459.736 173.938 445.659 163.406 425.02C163.375 425.02 163.375 424.987 163.375 424.987C163.375 424.987 161.844 420.886 159.062 413.405C152.531 395.883 160.062 376.064 176.281 368.091C192.5 360.15 211.844 366.745 220.469 383.217L220.719 383.709C223.844 389.878 230.031 394.111 237.188 394.111H312.469L312.5 295.673V187.13C312.5 128.166 359.469 106.312 359.469 106.312L435.156 65.9858H237.406ZM143.312 197.236L134.156 187.622C121.969 174.825 121.969 154.022 134.156 141.225C146.344 128.395 166.156 128.395 178.344 141.225L240.406 206.358C240.562 206.522 240.688 206.686 240.844 206.85C245.25 211.444 248.062 217.087 249.281 222.994C249.656 224.831 249.906 226.734 249.969 228.637L250 229.655V231.066L249.969 231.098V231.82L249.938 231.853V232.214C249.875 233.33 249.75 234.445 249.562 235.528L249.531 235.659V235.758L249.5 235.856V235.987L249.469 236.053V236.086C248.375 242.353 245.5 248.391 240.844 253.247C240.688 253.411 240.562 253.575 240.406 253.706L178.344 318.872C166.156 331.669 146.344 331.669 134.156 318.872C121.969 306.075 121.969 285.272 134.156 272.475L143.312 262.861H31.25C14 262.861 0 248.161 0 230.048C0 211.936 14 197.236 31.25 197.236H143.312Z" fill="black"/>
</svg>
